<?xml version="1.0" encoding="UTF-8"?>
<!DOCTYPE svg PUBLIC "-//W3C//DTD SVG 1.1//EN" "http://www.w3.org/Graphics/SVG/1.1/DTD/svg11.dtd">
<svg xmlns="http://www.w3.org/2000/svg" version="1.1" width="1628px" height="1261px" style="shape-rendering:geometricPrecision; text-rendering:geometricPrecision; image-rendering:optimizeQuality; fill-rule:evenodd; clip-rule:evenodd" xmlns:xlink="http://www.w3.org/1999/xlink">
<g><path style="opacity:0.977" fill="#0060ae" d="M 836.5,-0.5 C 840.833,-0.5 845.167,-0.5 849.5,-0.5C 964.611,-0.51022 1074.61,23.3231 1179.5,71C 1260.15,108.986 1326.99,163.82 1380,235.5C 1437.27,318.501 1458.94,410.168 1445,510.5C 1439.56,555.814 1425.9,598.481 1404,638.5C 1371.37,697.493 1330.03,749.826 1280,795.5C 1281.86,817.645 1271.69,827.812 1249.5,826C 1233.36,818.929 1228.53,807.095 1235,790.5C 1244.05,778.045 1255.55,775.211 1269.5,782C 1273.42,785.251 1276.59,789.084 1279,793.5C 1331.13,740.326 1371.8,679.326 1401,610.5C 1465.05,436.397 1425.55,290.897 1282.5,174C 1193.06,102.808 1091.4,58.4749 977.5,41C 807.753,16.8831 646.753,44.2165 494.5,123C 427.249,157.908 369.082,204.408 320,262.5C 288.445,300.934 265.779,344.267 252,392.5C 241.087,435.757 240.754,479.09 251,522.5C 254.533,535.307 258.366,547.974 262.5,560.5C 215.5,577.833 168.5,595.167 121.5,612.5C 101.864,528.917 110.364,448.25 147,370.5C 180.583,302.888 226.083,244.388 283.5,195C 379.049,116.055 487.382,61.0551 608.5,30C 683.422,10.6361 759.422,0.469399 836.5,-0.5 Z M 1252.5,781.5 C 1265.34,781.175 1273.5,787.175 1277,799.5C 1276.81,816.36 1268.31,824.193 1251.5,823C 1236.02,816.539 1231.85,805.706 1239,790.5C 1242.86,786.335 1247.36,783.335 1252.5,781.5 Z M 1251.5,792.5 C 1254.19,792.336 1256.85,792.503 1259.5,793C 1262.17,795.333 1262.17,797.667 1259.5,800C 1256.85,800.497 1254.19,800.664 1251.5,800.5C 1251.5,797.833 1251.5,795.167 1251.5,792.5 Z"/></g>
<g><path style="opacity:0.921" fill="#636362" d="M 1033.5,100.5 C 1037.5,103.181 1040.5,106.847 1042.5,111.5C 951.672,172.415 860.672,233.081 769.5,293.5C 766.955,290.126 764.622,286.626 762.5,283C 852.719,221.939 943.052,161.105 1033.5,100.5 Z"/></g>
<g><path style="opacity:0.917" fill="#636362" d="M 936.5,107.5 C 937.496,107.414 938.329,107.748 939,108.5C 940.421,111.009 942.088,113.343 944,115.5C 944.711,117.367 944.211,118.867 942.5,120C 862.247,173.376 782.081,226.876 702,280.5C 699.634,276.964 697.467,273.297 695.5,269.5C 775.689,215.242 856.023,161.242 936.5,107.5 Z"/></g>
<g><path style="opacity:0.917" fill="#636362" d="M 980.5,107.5 C 983.608,110.328 986.275,113.662 988.5,117.5C 891.398,183.436 793.898,248.77 696,313.5C 692.78,310.734 690.28,307.401 688.5,303.5C 785.579,237.749 882.912,172.416 980.5,107.5 Z"/></g>
<g><path style="opacity:0.924" fill="#636362" d="M 861.5,127.5 C 862.822,127.33 863.989,127.663 865,128.5C 866.796,131.927 868.963,135.094 871.5,138C 817.661,173.752 763.994,209.752 710.5,246C 709.551,246.617 708.718,246.451 708,245.5C 706.248,242.328 704.248,239.328 702,236.5C 701.312,235.668 701.479,235.002 702.5,234.5C 755.814,199.166 808.814,163.5 861.5,127.5 Z"/></g>
<g><path style="opacity:0.918" fill="#636362" d="M 1036.5,127.5 C 1037.68,127.281 1038.68,127.614 1039.5,128.5C 1041.14,131.304 1042.97,133.971 1045,136.5C 1045.51,137.996 1045.01,139.163 1043.5,140C 967.167,191 890.833,242 814.5,293C 813.551,293.617 812.718,293.451 812,292.5C 810.034,289.399 808.2,286.232 806.5,283C 807.272,281.779 808.272,280.779 809.5,280C 885.577,229.639 961.244,178.806 1036.5,127.5 Z"/></g>
<g><path style="opacity:0.859" fill="#636362" d="M 1060.5,140.5 C 1061.5,140.414 1062.33,140.748 1063,141.5C 1064.97,144.968 1067.14,148.301 1069.5,151.5C 1066.13,154.045 1062.63,156.378 1059,158.5C 1056.29,155.44 1053.79,152.106 1051.5,148.5C 1054.52,145.811 1057.52,143.144 1060.5,140.5 Z"/></g>
<g><path style="opacity:0.922" fill="#636362" d="M 1040.5,154.5 C 1041.68,154.281 1042.68,154.614 1043.5,155.5C 1044.8,157.968 1046.3,160.301 1048,162.5C 1048.71,164.367 1048.21,165.867 1046.5,167C 929.581,245.043 812.747,323.209 696,401.5C 693.006,398.18 690.506,394.513 688.5,390.5C 805.579,311.416 922.912,232.749 1040.5,154.5 Z"/></g>
<g><path style="opacity:0.863" fill="#636362" d="M 1073.5,161.5 C 1077.8,163.478 1080.8,166.811 1082.5,171.5C 1079.55,174.313 1076.22,176.646 1072.5,178.5C 1069.2,175.693 1066.87,172.193 1065.5,168C 1068.02,165.583 1070.69,163.417 1073.5,161.5 Z"/></g>
<g><path style="opacity:0.921" fill="#636362" d="M 1054.5,174.5 C 1057.73,177.413 1060.4,180.913 1062.5,185C 944.97,264.029 827.303,342.863 709.5,421.5C 706.554,418.45 704.22,414.95 702.5,411C 819.697,331.906 937.03,253.073 1054.5,174.5 Z"/></g>
<g><path style="opacity:0.85" fill="#636362" d="M 1097.5,174.5 C 1101.3,177.148 1104.3,180.648 1106.5,185C 1102.91,187.377 1099.41,189.877 1096,192.5C 1093.01,189.18 1090.51,185.513 1088.5,181.5C 1091.35,178.916 1094.35,176.583 1097.5,174.5 Z"/></g>
<g><path style="opacity:0.928" fill="#636362" d="M 650.5,181.5 C 652.017,181.511 653.184,182.177 654,183.5C 655.709,186.418 657.542,189.252 659.5,192C 636.079,208.46 612.246,224.293 588,239.5C 585.266,236.376 582.766,233.043 580.5,229.5C 603.862,213.49 627.196,197.49 650.5,181.5 Z"/></g>
<g><path style="opacity:0.897" fill="#636362" d="M 737.5,181.5 C 738.675,181.281 739.675,181.614 740.5,182.5C 742.138,185.304 743.971,187.971 746,190.5C 746.749,191.635 746.583,192.635 745.5,193.5C 733.031,201.47 720.698,209.637 708.5,218C 707.241,218.982 705.908,219.315 704.5,219C 703.04,215.911 701.207,213.078 699,210.5C 698.251,209.365 698.417,208.365 699.5,207.5C 712.482,199.166 725.149,190.499 737.5,181.5 Z"/></g>
<g><path style="opacity:0.886" fill="#636362" d="M 587.5,194.5 C 589.47,196.647 591.303,198.98 593,201.5C 594.187,203.044 594.52,204.711 594,206.5C 587.636,211.029 581.136,215.363 574.5,219.5C 571.233,216.274 569.067,212.607 568,208.5C 574.681,203.97 581.181,199.304 587.5,194.5 Z"/></g>
<g><path style="opacity:0.923" fill="#636362" d="M 1068.5,194.5 C 1071.69,197.531 1074.35,201.031 1076.5,205C 1013.01,247.915 949.339,290.581 885.5,333C 884.004,333.507 882.837,333.007 882,331.5C 880.111,328.888 878.611,326.055 877.5,323C 941.053,279.939 1004.72,237.105 1068.5,194.5 Z"/></g>
<g><path style="opacity:0.904" fill="#636362" d="M 634.5,221.5 C 637.687,224.531 640.353,228.031 642.5,232C 628.971,241.695 615.305,251.195 601.5,260.5C 599.025,256.858 596.358,253.358 593.5,250C 607.07,240.247 620.737,230.747 634.5,221.5 Z"/></g>
<g><path style="opacity:0.915" fill="#636362" d="M 1070.5,221.5 C 1074.5,224.181 1077.5,227.847 1079.5,232.5C 1038.91,259.376 998.414,286.376 958,313.5C 955.132,310.264 952.632,306.764 950.5,303C 990.739,276.058 1030.74,248.891 1070.5,221.5 Z"/></g>
<g><path style="opacity:0.914" fill="#636362" d="M 570.5,235.5 C 573.857,238.499 576.524,242.166 578.5,246.5C 521.136,285.029 463.636,323.363 406,361.5C 403.833,357.833 401.667,354.167 399.5,350.5C 456.356,311.909 513.356,273.575 570.5,235.5 Z"/></g>
<g><path style="opacity:0.908" fill="#636362" d="M 1074.5,248.5 C 1078.21,251.03 1080.88,254.53 1082.5,259C 1063.04,272.57 1043.37,285.904 1023.5,299C 1022.22,299.684 1021.05,299.517 1020,298.5C 1018.37,295.368 1016.53,292.368 1014.5,289.5C 1034.52,275.808 1054.52,262.141 1074.5,248.5 Z"/></g>
<g><path style="opacity:0.92" fill="#636362" d="M 505.5,249.5 C 509.376,251.824 512.376,255.157 514.5,259.5C 457.548,298.316 400.215,336.65 342.5,374.5C 340.167,371.167 337.833,367.833 335.5,364.5C 392.207,326.108 448.874,287.775 505.5,249.5 Z"/></g>
<g><path style="opacity:0.862" fill="#636362" d="M 680.5,249.5 C 681.822,249.33 682.989,249.663 684,250.5C 685.709,253.418 687.542,256.252 689.5,259C 686.247,261.874 682.747,264.374 679,266.5C 676.138,263.297 673.638,259.797 671.5,256C 674.567,253.812 677.567,251.645 680.5,249.5 Z"/></g>
<g><path style="opacity:0.845" fill="#636362" d="M 1108.5,254.5 C 1111.39,257.922 1114.06,261.589 1116.5,265.5C 1113.13,268.277 1109.63,270.943 1106,273.5C 1103.5,269.833 1101,266.167 1098.5,262.5C 1101.86,259.825 1105.2,257.158 1108.5,254.5 Z"/></g>
<g><path style="opacity:0.919" fill="#636362" d="M 573.5,262.5 C 574.496,262.414 575.329,262.748 576,263.5C 577.966,266.601 579.8,269.768 581.5,273C 514.449,318.28 447.283,363.447 380,408.5C 377.006,405.18 374.506,401.513 372.5,397.5C 439.738,352.725 506.738,307.725 573.5,262.5 Z"/></g>
<g><path style="opacity:0.85" fill="#636362" d="M 1130.5,268.5 C 1131.82,268.33 1132.99,268.663 1134,269.5C 1136.29,272.58 1138.46,275.747 1140.5,279C 1136.83,281.5 1133.17,284 1129.5,286.5C 1126.99,283.148 1124.66,279.648 1122.5,276C 1125.04,273.29 1127.71,270.79 1130.5,268.5 Z"/></g>
<g><path style="opacity:0.908" fill="#636362" d="M 422.5,275.5 C 425.857,278.499 428.524,282.166 430.5,286.5C 397.043,309.401 363.376,332.068 329.5,354.5C 326.289,351.451 323.623,347.951 321.5,344C 355.232,321.144 388.899,298.31 422.5,275.5 Z"/></g>
<g><path style="opacity:0.901" fill="#636362" d="M 1077.5,275.5 C 1078.68,275.281 1079.68,275.614 1080.5,276.5C 1083.12,279.567 1084.96,282.9 1086,286.5C 1072.33,295.5 1058.67,304.5 1045,313.5C 1041.96,309.857 1039.96,305.857 1039,301.5C 1051.99,292.934 1064.82,284.267 1077.5,275.5 Z"/></g>
<g><path style="opacity:0.912" fill="#636362" d="M 741.5,295.5 C 742.496,295.414 743.329,295.748 744,296.5C 745.333,298.5 746.667,300.5 748,302.5C 749.187,304.044 749.52,305.711 749,307.5C 732.403,319.027 715.57,329.86 698.5,340C 694.951,336.761 693.285,332.927 693.5,328.5C 709.914,317.971 725.914,306.971 741.5,295.5 Z"/></g>
<g><path style="opacity:0.916" fill="#636362" d="M 785.5,295.5 C 788.439,297.988 790.939,300.988 793,304.5C 793.684,305.784 793.517,306.951 792.5,308C 759.031,329.97 725.697,352.137 692.5,374.5C 690.333,371.5 688.167,368.5 686,365.5C 685.316,364.216 685.483,363.049 686.5,362C 719.911,340.306 752.911,318.139 785.5,295.5 Z"/></g>
<g><path style="opacity:0.919" fill="#636362" d="M 566.5,296.5 C 568.017,296.511 569.184,297.177 570,298.5C 571.833,301 573.667,303.5 575.5,306C 515.339,346.914 455.006,387.581 394.5,428C 393.004,428.507 391.837,428.007 391,426.5C 389.483,423.657 387.983,420.823 386.5,418C 446.363,377.24 506.363,336.74 566.5,296.5 Z"/></g>
<g><path style="opacity:0.881" fill="#636362" d="M 994.5,301.5 C 997.223,304.586 999.723,307.92 1002,311.5C 1002.67,312.167 1002.67,312.833 1002,313.5C 996.081,317.209 990.248,321.042 984.5,325C 983.241,325.982 981.908,326.315 980.5,326C 977.943,322.715 976.11,319.215 975,315.5C 981.681,310.97 988.181,306.304 994.5,301.5 Z"/></g>
<g><path style="opacity:0.902" fill="#636362" d="M 1125.5,301.5 C 1128.51,305.005 1131.18,308.838 1133.5,313C 1124.17,319.333 1114.83,325.667 1105.5,332C 1104.24,332.982 1102.91,333.315 1101.5,333C 1099.54,330.252 1097.71,327.418 1096,324.5C 1095.25,323.365 1095.42,322.365 1096.5,321.5C 1106.41,315.058 1116.07,308.391 1125.5,301.5 Z"/></g>
<g><path style="opacity:0.856" fill="#636362" d="M 1070.5,309.5 C 1071.82,309.33 1072.99,309.663 1074,310.5C 1075.83,313.5 1077.67,316.5 1079.5,319.5C 1076.45,322.446 1072.95,324.78 1069,326.5C 1066.14,323.295 1063.64,319.795 1061.5,316C 1064.57,313.812 1067.57,311.645 1070.5,309.5 Z"/></g>
<g><path style="opacity:0.894" fill="#636362" d="M 1201.5,309.5 C 1205.57,311.411 1208.57,314.577 1210.5,319C 1204.04,324.068 1197.37,328.902 1190.5,333.5C 1187.2,330.693 1184.87,327.193 1183.5,323C 1189.36,318.245 1195.36,313.745 1201.5,309.5 Z"/></g>
<g><path style="opacity:0.857" fill="#636362" d="M 1006.5,322.5 C 1007.68,322.281 1008.68,322.614 1009.5,323.5C 1011.71,326.543 1013.71,329.71 1015.5,333C 1012.57,335.766 1009.23,337.932 1005.5,339.5C 1002.33,337.016 999.998,333.849 998.5,330C 1001.04,327.29 1003.71,324.79 1006.5,322.5 Z"/></g>
<g><path style="opacity:0.89" fill="#636362" d="M 1138.5,322.5 C 1139.5,322.414 1140.33,322.748 1141,323.5C 1142.8,326.927 1144.96,330.094 1147.5,333C 1141.17,337.333 1134.83,341.667 1128.5,346C 1127.06,346.781 1125.72,346.614 1124.5,345.5C 1121.88,342.433 1120.04,339.1 1119,335.5C 1125.48,331.019 1131.98,326.686 1138.5,322.5 Z"/></g>
<g><path style="opacity:0.888" fill="#636362" d="M 1085.5,328.5 C 1089.01,331.853 1091.17,335.853 1092,340.5C 1085.64,345.029 1079.14,349.363 1072.5,353.5C 1069.23,350.274 1067.07,346.607 1066,342.5C 1072.48,337.689 1078.98,333.022 1085.5,328.5 Z"/></g>
<g><path style="opacity:0.917" fill="#636362" d="M 856.5,335.5 C 859.879,338.567 862.546,342.234 864.5,346.5C 820.945,376.198 777.112,405.531 733,434.5C 730.138,431.297 727.638,427.797 725.5,424C 769.232,394.477 812.899,364.977 856.5,335.5 Z"/></g>
<g><path style="opacity:0.926" fill="#636362" d="M 890.5,342.5 C 893.135,345.079 895.301,348.079 897,351.5C 897.684,352.784 897.517,353.951 896.5,355C 860.5,379 824.5,403 788.5,427C 787.216,427.684 786.049,427.517 785,426.5C 783.167,423.5 781.333,420.5 779.5,417.5C 816.356,392.242 853.356,367.242 890.5,342.5 Z"/></g>
<g><path style="opacity:0.853" fill="#636362" d="M 1151.5,342.5 C 1153.37,342.859 1154.87,343.859 1156,345.5C 1157.5,347.833 1159,350.167 1160.5,352.5C 1157.4,355.888 1153.74,358.555 1149.5,360.5C 1146.96,357.126 1144.62,353.626 1142.5,350C 1145.1,347.031 1148.1,344.531 1151.5,342.5 Z"/></g>
<g><path style="opacity:0.919" fill="#636362" d="M 529.5,349.5 C 530.496,349.414 531.329,349.748 532,350.5C 533.752,353.672 535.752,356.672 538,359.5C 538.688,360.332 538.521,360.998 537.5,361.5C 494.364,390.137 451.364,418.971 408.5,448C 407.004,448.507 405.837,448.007 405,446.5C 402.971,443.971 401.138,441.304 399.5,438.5C 399.709,437.914 400.043,437.414 400.5,437C 443.912,408.305 486.912,379.139 529.5,349.5 Z"/></g>
<g><path style="opacity:0.887" fill="#636362" d="M 1184.5,349.5 C 1186.39,349.297 1187.89,349.963 1189,351.5C 1190.71,354.418 1192.54,357.252 1194.5,360C 1187.84,364.999 1180.84,369.499 1173.5,373.5C 1170.29,370.451 1167.62,366.951 1165.5,363C 1172.01,358.637 1178.35,354.137 1184.5,349.5 Z"/></g>
<g><path style="opacity:0.907" fill="#636362" d="M 1228.5,349.5 C 1229.55,349.351 1230.55,349.517 1231.5,350C 1233.62,353.082 1235.62,356.249 1237.5,359.5C 1201.04,384.568 1164.38,409.401 1127.5,434C 1126.55,434.617 1125.72,434.451 1125,433.5C 1123.33,430.833 1121.67,428.167 1120,425.5C 1119.32,424.216 1119.48,423.049 1120.5,422C 1156.74,398.058 1192.74,373.891 1228.5,349.5 Z"/></g>
<g><path style="opacity:0.923" fill="#636362" d="M 902.5,363.5 C 903.675,363.281 904.675,363.614 905.5,364.5C 907.306,367.472 909.306,370.305 911.5,373C 879.108,395.724 846.441,418.057 813.5,440C 812.216,440.684 811.049,440.517 810,439.5C 808.285,436.565 806.452,433.732 804.5,431C 804.759,429.739 805.426,428.739 806.5,428C 838.738,406.725 870.738,385.225 902.5,363.5 Z"/></g>
<g><path style="opacity:0.913" fill="#636362" d="M 1233.5,375.5 C 1235.65,378.433 1237.81,381.433 1240,384.5C 1240.68,385.784 1240.52,386.951 1239.5,388C 1203,412.5 1166.5,437 1130,461.5C 1127.01,458.18 1124.51,454.513 1122.5,450.5C 1159.36,425.242 1196.36,400.242 1233.5,375.5 Z"/></g>
<g><path style="opacity:0.918" fill="#636362" d="M 513.5,389.5 C 516.879,392.567 519.546,396.234 521.5,400.5C 488.66,423.163 455.66,445.663 422.5,468C 421.216,468.684 420.049,468.517 419,467.5C 416.71,464.42 414.543,461.253 412.5,458C 446.232,435.144 479.899,412.31 513.5,389.5 Z"/></g>
<g><path style="opacity:0.904" fill="#636362" d="M 895.5,396.5 C 896.675,396.281 897.675,396.614 898.5,397.5C 900.713,400.543 902.713,403.71 904.5,407C 888.793,418.364 872.793,429.364 856.5,440C 852.515,438.684 849.682,435.851 848,431.5C 847.251,430.365 847.417,429.365 848.5,428.5C 864.406,418.058 880.072,407.391 895.5,396.5 Z"/></g>
<g><path style="opacity:0.912" fill="#636362" d="M 1225.5,409.5 C 1229.17,412.434 1232.17,416.101 1234.5,420.5C 1217.5,431.833 1200.5,443.167 1183.5,454.5C 1180.96,451.126 1178.62,447.626 1176.5,444C 1176.83,443.5 1177.17,443 1177.5,442.5C 1193.91,431.971 1209.91,420.971 1225.5,409.5 Z"/></g>
<g><path style="opacity:0.854" fill="#636362" d="M 506.5,423.5 C 507.496,423.414 508.329,423.748 509,424.5C 510.85,427.677 512.683,430.843 514.5,434C 511.693,437.334 508.193,439.834 504,441.5C 501.22,438.78 499.053,435.614 497.5,432C 500.331,429.003 503.331,426.169 506.5,423.5 Z"/></g>
<g><path style="opacity:0.911" fill="#636362" d="M 485.5,437.5 C 486.822,437.33 487.989,437.663 489,438.5C 491.267,441.701 492.934,445.034 494,448.5C 477.507,460.081 460.84,471.414 444,482.5C 440.579,478.971 438.245,474.971 437,470.5C 453.345,459.637 469.511,448.637 485.5,437.5 Z"/></g>
<g><path style="opacity:0.975" fill="#0060ae" d="M 935.5,455.5 C 940.438,455.534 945.104,456.701 949.5,459C 1030.14,492.6 1110.8,526.1 1191.5,559.5C 1107.64,595.341 1023.31,630.008 938.5,663.5C 934.298,663.044 930.298,661.877 926.5,660C 879.542,640.85 832.876,621.183 786.5,601C 803.295,593.601 820.295,586.768 837.5,580.5C 871.26,593.878 904.926,607.545 938.5,621.5C 988.167,601 1037.83,580.5 1087.5,560C 1038.07,538.953 988.405,518.453 938.5,498.5C 871.988,525.172 805.655,552.339 739.5,580C 738.667,580.833 737.833,581.667 737,582.5C 736.5,665.166 736.333,747.833 736.5,830.5C 720.357,824.839 704.357,818.672 688.5,812C 686.667,811.5 685.5,810.333 685,808.5C 684.333,725.833 684.333,643.167 685,560.5C 685.833,559.667 686.667,558.833 687.5,558C 770.37,524.057 853.037,489.89 935.5,455.5 Z"/></g>
<g><path style="opacity:0.898" fill="#636362" d="M 499.5,457.5 C 500.496,457.414 501.329,457.748 502,458.5C 503.796,461.927 505.963,465.094 508.5,468C 498.249,475.636 487.582,482.302 476.5,488C 473.417,484.997 471.584,481.497 471,477.5C 480.654,470.934 490.154,464.268 499.5,457.5 Z"/></g>
<g><path style="opacity:0.908" fill="#636362" d="M 543.5,457.5 C 544.496,457.414 545.329,457.748 546,458.5C 547.667,461.167 549.333,463.833 551,466.5C 551.749,467.635 551.583,468.635 550.5,469.5C 537.452,478.768 524.118,487.268 510.5,495C 506.951,491.761 505.285,487.927 505.5,483.5C 518.482,475.166 531.149,466.499 543.5,457.5 Z"/></g>
<g><path style="opacity:0.91" fill="#636362" d="M 577.5,463.5 C 580.826,466.522 583.493,470.188 585.5,474.5C 565.871,487.987 546.204,501.487 526.5,515C 525.216,515.684 524.049,515.517 523,514.5C 521.167,511.5 519.333,508.5 517.5,505.5C 517.709,504.914 518.043,504.414 518.5,504C 538.58,490.971 558.247,477.471 577.5,463.5 Z"/></g>
<g><path style="opacity:0.916" fill="#636362" d="M 621.5,463.5 C 624.223,466.586 626.723,469.92 629,473.5C 629.617,474.449 629.451,475.282 628.5,476C 595.031,497.97 561.697,520.137 528.5,542.5C 525.484,539.48 522.817,536.146 520.5,532.5C 554.022,509.243 587.689,486.243 621.5,463.5 Z"/></g>
<g><path style="opacity:0.916" fill="#636362" d="M 645.5,476.5 C 646.552,476.351 647.552,476.517 648.5,477C 650.625,480.082 652.625,483.249 654.5,486.5C 617.388,512.564 579.721,537.897 541.5,562.5C 538.807,559.621 536.474,556.454 534.5,553C 534.759,551.739 535.426,550.739 536.5,550C 573.011,525.637 609.344,501.137 645.5,476.5 Z"/></g>
<g><path style="opacity:0.922" fill="#636362" d="M 645.5,505.5 C 646.552,505.351 647.552,505.517 648.5,506C 650.625,509.082 652.625,512.249 654.5,515.5C 625.388,536.23 595.722,556.23 565.5,575.5C 562.487,572.651 559.82,569.485 557.5,566C 587.012,545.97 616.345,525.804 645.5,505.5 Z"/></g>
<g><path style="opacity:0.918" fill="#636362" d="M 646.5,534.5 C 650.222,537.07 652.888,540.57 654.5,545C 633.544,560.15 612.211,574.817 590.5,589C 589.216,589.684 588.049,589.517 587,588.5C 585.167,585.5 583.333,582.5 581.5,579.5C 581.977,578.522 582.643,577.689 583.5,577C 604.911,563.306 625.911,549.139 646.5,534.5 Z"/></g>
<g><path style="opacity:0.904" fill="#636362" d="M 646.5,563.5 C 649.439,565.988 651.939,568.988 654,572.5C 654.684,573.784 654.517,574.951 653.5,576C 636.5,587.167 619.5,598.333 602.5,609.5C 599.484,606.48 596.817,603.146 594.5,599.5C 594.977,598.522 595.643,597.689 596.5,597C 613.405,586.058 630.071,574.891 646.5,563.5 Z"/></g>
<g><path style="opacity:0.986" fill="#0060ae" d="M 265.5,570.5 C 266.675,570.281 267.675,570.614 268.5,571.5C 285.103,605.112 307.103,634.779 334.5,660.5C 291.567,694.639 248.234,728.306 204.5,761.5C 170.267,724.734 144.933,682.401 128.5,634.5C 129.885,632.295 131.885,630.795 134.5,630C 178.395,610.435 222.061,590.601 265.5,570.5 Z"/></g>
<g><path style="opacity:0.904" fill="#636362" d="M 646.5,592.5 C 650.535,595.669 653.035,599.669 654,604.5C 637.905,615.945 621.405,626.445 604.5,636C 601.943,632.715 600.11,629.215 599,625.5C 615.161,614.847 630.995,603.847 646.5,592.5 Z"/></g>
<g><path style="opacity:0.975" fill="#636362" d="M 1187.5,601.5 C 1188.82,601.33 1189.99,601.663 1191,602.5C 1191.67,615.833 1191.67,629.167 1191,642.5C 1190.17,643.333 1189.33,644.167 1188.5,645C 1105.83,679 1023.17,713 940.5,747C 937.053,747.192 933.72,746.525 930.5,745C 899.679,731.918 868.679,719.418 837.5,707.5C 837.333,720.171 837.5,732.838 838,745.5C 838.308,746.308 838.808,746.975 839.5,747.5C 872.363,761.231 905.363,774.564 938.5,787.5C 1018.68,755.161 1098.68,722.328 1178.5,689C 1182.6,686.91 1186.93,685.744 1191.5,685.5C 1191.67,699.171 1191.5,712.837 1191,726.5C 1108.38,761.377 1025.55,795.877 942.5,830C 939.833,830.667 937.167,830.667 934.5,830C 902.331,816.335 869.998,803.168 837.5,790.5C 837.333,803.504 837.5,816.504 838,829.5C 871.246,843.975 904.746,857.975 938.5,871.5C 1018.87,838.431 1099.21,805.264 1179.5,772C 1183.31,770.119 1187.31,768.953 1191.5,768.5C 1191.67,782.171 1191.5,795.837 1191,809.5C 1190.5,810 1190,810.5 1189.5,811C 1107.5,845 1025.5,879 943.5,913C 940.167,913.667 936.833,913.667 933.5,913C 888.328,893.943 842.995,875.276 797.5,857C 793.207,855.576 789.374,853.409 786,850.5C 785.5,781.167 785.333,711.834 785.5,642.5C 836.586,662.874 887.586,683.541 938.5,704.5C 1021.84,670.728 1104.84,636.395 1187.5,601.5 Z"/></g>
<g><path style="opacity:0.893" fill="#636362" d="M 645.5,622.5 C 646.822,622.33 647.989,622.663 649,623.5C 650.421,626.009 652.088,628.343 654,630.5C 654.667,631.5 654.667,632.5 654,633.5C 645.925,639.243 637.591,644.577 629,649.5C 625.901,646.801 623.401,643.635 621.5,640C 629.383,633.942 637.383,628.109 645.5,622.5 Z"/></g>
<g><path style="opacity:0.987" fill="#0060ae" d="M 349.5,674.5 C 386.023,703.778 426.356,726.945 470.5,744C 436.636,787.563 403.136,831.397 370,875.5C 368.024,877.877 365.857,879.877 363.5,881.5C 310.988,856.317 264.321,822.984 223.5,781.5C 265.519,745.81 307.519,710.144 349.5,674.5 Z"/></g>
<g><path style="opacity:0.993" fill="#0060ae" d="M 497.5,753.5 C 548.879,767.602 601.212,775.268 654.5,776.5C 654.833,839.504 654.5,902.504 653.5,965.5C 584.537,957.541 517.203,942.374 451.5,920C 435.408,914.082 419.575,907.582 404,900.5C 405.4,896.367 407.4,892.367 410,888.5C 439.686,843.784 468.853,798.784 497.5,753.5 Z"/></g>
<g><path style="opacity:0.821" fill="#636362" d="M 1245.5,787.5 C 1251.18,787.334 1256.84,787.501 1262.5,788C 1263.42,788.374 1264.25,788.874 1265,789.5C 1266.52,793.375 1266.85,797.375 1266,801.5C 1264.79,803.049 1263.29,804.215 1261.5,805C 1265.03,808.889 1267.36,813.389 1268.5,818.5C 1266.4,818.799 1264.4,818.466 1262.5,817.5C 1260.87,814.04 1259.03,810.706 1257,807.5C 1255.56,805.845 1253.72,805.178 1251.5,805.5C 1251.5,809.833 1251.5,814.167 1251.5,818.5C 1249.5,818.5 1247.5,818.5 1245.5,818.5C 1245.5,808.167 1245.5,797.833 1245.5,787.5 Z M 1251.5,792.5 C 1251.5,795.167 1251.5,797.833 1251.5,800.5C 1254.19,800.664 1256.85,800.497 1259.5,800C 1262.17,797.667 1262.17,795.333 1259.5,793C 1256.85,792.503 1254.19,792.336 1251.5,792.5 Z"/></g>
<g><path style="opacity:0.945" fill="#0060ae" d="M 1175.5,825.5 C 1188.08,822.539 1196.91,826.872 1202,838.5C 1208.51,871.954 1198.01,898.454 1170.5,918C 1162.32,921.837 1154.15,925.67 1146,929.5C 1145.67,946.833 1145.33,964.167 1145,981.5C 1140.14,984.511 1134.98,986.845 1129.5,988.5C 1130.14,940.5 1130.8,892.5 1131.5,844.5C 1146.22,838.134 1160.89,831.801 1175.5,825.5 Z M 1175.5,844.5 C 1181.66,845.164 1185.5,848.498 1187,854.5C 1190.2,874.269 1183.7,889.769 1167.5,901C 1160.71,903.894 1154.05,907.06 1147.5,910.5C 1146.17,892.5 1146.17,874.5 1147.5,856.5C 1156.72,851.884 1166.05,847.884 1175.5,844.5 Z"/></g>
<g><path style="opacity:0.986" fill="#0060ae" d="M 684.5,864.5 C 763.92,898.032 843.253,931.866 922.5,966C 923.662,1000.76 923.829,1035.6 923,1070.5C 843.657,1036.08 764.157,1002.08 684.5,968.5C 684.5,933.833 684.5,899.167 684.5,864.5 Z"/></g>
<g><path style="opacity:0.946" fill="#0060ae" d="M 1084.5,867.5 C 1097.26,865.954 1105.42,871.287 1109,883.5C 1113.11,910.513 1105.27,933.346 1085.5,952C 1095.55,965.946 1105.22,980.113 1114.5,994.5C 1113.12,996.705 1111.12,998.205 1108.5,999C 1104.6,1000.97 1100.6,1002.3 1096.5,1003C 1086.63,989.427 1077.13,975.594 1068,961.5C 1063.46,964.105 1058.79,966.438 1054,968.5C 1053.82,987.201 1052.99,1005.87 1051.5,1024.5C 1047.03,1027.07 1042.37,1029.07 1037.5,1030.5C 1037.73,989.164 1038.23,947.831 1039,906.5C 1039.17,899.809 1039.67,893.142 1040.5,886.5C 1055.03,879.559 1069.7,873.226 1084.5,867.5 Z M 1079.5,887.5 C 1085.2,886.436 1089.37,888.436 1092,893.5C 1096.72,911.101 1092.22,925.934 1078.5,938C 1070.54,942.565 1062.37,946.732 1054,950.5C 1054.01,933.169 1054.51,915.836 1055.5,898.5C 1063.59,894.784 1071.59,891.118 1079.5,887.5 Z"/></g>
<g><path style="opacity:0.941" fill="#0060ae" d="M 1015.5,897.5 C 1016.5,897.5 1017.5,897.5 1018.5,897.5C 1018.83,903.537 1018.5,909.537 1017.5,915.5C 1001.5,922.833 985.5,930.167 969.5,937.5C 968.746,951.841 968.079,966.174 967.5,980.5C 981.919,974.46 996.252,968.126 1010.5,961.5C 1010.83,962.333 1011.17,963.167 1011.5,964C 1010.97,969.602 1009.97,975.102 1008.5,980.5C 994.918,986.793 981.252,992.793 967.5,998.5C 967.415,1013.92 967.415,1029.25 967.5,1044.5C 983.964,1036.6 1000.63,1029.27 1017.5,1022.5C 1017.83,1028.54 1017.5,1034.54 1016.5,1040.5C 994.94,1050.41 973.44,1060.41 952,1070.5C 951.477,1022.48 952.144,974.48 954,926.5C 974.543,916.719 995.043,907.052 1015.5,897.5 Z"/></g>
<g><path style="opacity:0.969" fill="#0060ae" d="M -0.5,1160.5 C -0.5,1159.17 -0.5,1157.83 -0.5,1156.5C 4.94382,1144.28 11.4438,1132.62 19,1121.5C 30.3004,1109.89 44.1338,1104.23 60.5,1104.5C 82.8171,1105.46 105.15,1105.79 127.5,1105.5C 124.992,1117.86 122.326,1130.2 119.5,1142.5C 108.833,1142.5 98.1667,1142.5 87.5,1142.5C 78.6524,1180.56 69.4857,1218.56 60,1256.5C 47.2464,1257.49 34.4131,1257.82 21.5,1257.5C 30.6755,1219.13 40.0088,1180.8 49.5,1142.5C 38.6007,1141.74 27.9341,1142.91 17.5,1146C 11.5441,1149.62 6.54407,1154.29 2.5,1160C 1.55198,1160.48 0.551975,1160.65 -0.5,1160.5 Z"/></g>
<g><path style="opacity:0.969" fill="#0060ae" d="M 426.5,1260.5 C 413.5,1260.5 400.5,1260.5 387.5,1260.5C 368.009,1260.18 357.176,1250.18 355,1230.5C 354.323,1202.37 359.156,1175.2 369.5,1149C 361.337,1149.58 354.67,1153.08 349.5,1159.5C 348.311,1160.43 346.978,1160.76 345.5,1160.5C 351.293,1140.76 362.626,1124.93 379.5,1113C 385.117,1109.68 391.117,1107.35 397.5,1106C 425.811,1104.24 454.145,1104.07 482.5,1105.5C 479.342,1117.8 476.342,1130.13 473.5,1142.5C 454.074,1142.02 434.741,1142.52 415.5,1144C 410.89,1150.18 408.057,1157.01 407,1164.5C 422.108,1163.47 437.275,1163.64 452.5,1165C 449.773,1174.41 447.273,1183.91 445,1193.5C 429.244,1194.49 413.411,1194.82 397.5,1194.5C 396.585,1200.33 395.585,1206.17 394.5,1212C 394.4,1215.8 396.066,1218.47 399.5,1220C 418.604,1223.53 437.604,1223.03 456.5,1218.5C 453.816,1231.24 450.816,1243.9 447.5,1256.5C 440.444,1258.22 433.444,1259.55 426.5,1260.5 Z"/></g>
<g><path style="opacity:0.968" fill="#0060ae" d="M 690.5,1104.5 C 709.821,1105.23 729.154,1105.73 748.5,1106C 744.935,1118.09 741.602,1130.26 738.5,1142.5C 722.5,1142.5 706.5,1142.5 690.5,1142.5C 689.134,1151.96 687.134,1161.3 684.5,1170.5C 699.819,1171.5 715.152,1171.83 730.5,1171.5C 728.872,1181.51 726.538,1191.35 723.5,1201C 707.926,1201.17 692.426,1201.67 677,1202.5C 672.812,1220.59 668.312,1238.59 663.5,1256.5C 650.851,1257.5 638.184,1257.83 625.5,1257.5C 633.619,1221.19 642.286,1185.02 651.5,1149C 650.092,1148.68 648.759,1149.02 647.5,1150C 643.534,1152.96 639.867,1156.3 636.5,1160C 635.552,1160.48 634.552,1160.65 633.5,1160.5C 637.717,1143.9 645.717,1129.4 657.5,1117C 667.295,1109.43 678.295,1105.26 690.5,1104.5 Z"/></g>
<g><path style="opacity:0.972" fill="#0060ae" d="M 814.5,1104.5 C 826.5,1104.5 838.5,1104.5 850.5,1104.5C 841.819,1141.89 832.819,1179.23 823.5,1216.5C 823.743,1220.15 825.41,1222.98 828.5,1225C 839.612,1230.18 849.778,1228.68 859,1220.5C 860.586,1218.33 861.92,1216 863,1213.5C 872,1177.5 881,1141.5 890,1105.5C 903.091,1104.34 916.258,1104.18 929.5,1105C 919.263,1145.45 909.097,1185.95 899,1226.5C 894.593,1239.91 885.759,1249.07 872.5,1254C 859.714,1258.41 846.547,1260.24 833,1259.5C 822.612,1260.08 812.445,1258.91 802.5,1256C 793.658,1252.82 788.158,1246.65 786,1237.5C 785.333,1231.17 785.333,1224.83 786,1218.5C 795.817,1180.57 805.317,1142.57 814.5,1104.5 Z"/></g>
<g><path style="opacity:0.968" fill="#0060ae" d="M 1031.5,1104.5 C 1055.49,1105.25 1079.49,1105.75 1103.5,1106C 1099.95,1118.02 1096.95,1130.18 1094.5,1142.5C 1083.92,1142.18 1073.42,1142.51 1063,1143.5C 1053.79,1181.2 1044.46,1218.86 1035,1256.5C 1022.25,1257.49 1009.41,1257.82 996.5,1257.5C 1005.68,1219.13 1015.01,1180.8 1024.5,1142.5C 1011.41,1140.93 999.081,1143.09 987.5,1149C 983.797,1152.37 980.464,1156.03 977.5,1160C 975.763,1160.61 974.763,1159.95 974.5,1158C 979.872,1143.25 987.538,1129.91 997.5,1118C 1007.46,1109.84 1018.8,1105.34 1031.5,1104.5 Z"/></g>
<g><path style="opacity:0.971" fill="#0060ae" d="M 1168.5,1104.5 C 1180.52,1104.17 1192.52,1104.5 1204.5,1105.5C 1195.32,1142.54 1185.99,1179.54 1176.5,1216.5C 1177.2,1219.36 1178.53,1221.86 1180.5,1224C 1193.06,1230.69 1204.23,1228.85 1214,1218.5C 1214.67,1217.17 1215.33,1215.83 1216,1214.5C 1225.33,1178.2 1234.49,1141.87 1243.5,1105.5C 1256.48,1104.5 1269.48,1104.17 1282.5,1104.5C 1272.34,1145.82 1262.17,1187.15 1252,1228.5C 1246.35,1241.49 1236.85,1250.32 1223.5,1255C 1211.45,1258.7 1199.11,1260.2 1186.5,1259.5C 1174.33,1260.67 1162.66,1258.84 1151.5,1254C 1144.72,1249.61 1140.55,1243.44 1139,1235.5C 1138.24,1229.11 1138.58,1222.78 1140,1216.5C 1149.2,1179.05 1158.7,1141.71 1168.5,1104.5 Z"/></g>
<g><path style="opacity:0.969" fill="#0060ae" d="M 1627.5,1104.5 C 1627.5,1106.17 1627.5,1107.83 1627.5,1109.5C 1624.07,1120.21 1621.41,1131.21 1619.5,1142.5C 1600.5,1142.33 1581.5,1142.5 1562.5,1143C 1556.81,1149.09 1553.64,1156.26 1553,1164.5C 1567.76,1163.61 1582.6,1163.61 1597.5,1164.5C 1595.64,1174.27 1593.31,1183.94 1590.5,1193.5C 1574.85,1194.5 1559.18,1194.83 1543.5,1194.5C 1541.37,1201.7 1540.53,1209.03 1541,1216.5C 1542.17,1217.67 1543.33,1218.83 1544.5,1220C 1563.95,1223.39 1583.28,1223.06 1602.5,1219C 1599.27,1231.76 1596.27,1244.59 1593.5,1257.5C 1586.33,1258.24 1579.33,1259.24 1572.5,1260.5C 1559.17,1260.5 1545.83,1260.5 1532.5,1260.5C 1517.91,1260.95 1508.07,1254.28 1503,1240.5C 1499.68,1228.63 1499.01,1216.63 1501,1204.5C 1504.41,1185.52 1508.75,1166.86 1514,1148.5C 1506.21,1150.15 1499.71,1153.98 1494.5,1160C 1492.68,1160.78 1491.35,1160.28 1490.5,1158.5C 1497.27,1140.43 1508.27,1125.59 1523.5,1114C 1532.13,1108.79 1541.46,1105.79 1551.5,1105C 1576.83,1104.5 1602.16,1104.33 1627.5,1104.5 Z"/></g>
<g><path style="opacity:0.972" fill="#0060ae" d="M 201.5,1105.5 C 214.167,1105.5 226.833,1105.5 239.5,1105.5C 236.484,1120.23 233.15,1134.9 229.5,1149.5C 238.167,1149.5 246.833,1149.5 255.5,1149.5C 258.833,1134.83 262.167,1120.17 265.5,1105.5C 278.517,1105.17 291.517,1105.5 304.5,1106.5C 291.688,1156.41 279.188,1206.41 267,1256.5C 254.246,1257.49 241.413,1257.82 228.5,1257.5C 234.342,1232.46 240.342,1207.46 246.5,1182.5C 237.833,1182.5 229.167,1182.5 220.5,1182.5C 214.816,1207.24 208.816,1231.9 202.5,1256.5C 189.851,1257.5 177.184,1257.83 164.5,1257.5C 169.689,1233.74 175.356,1210.08 181.5,1186.5C 181.167,1185.83 180.833,1185.17 180.5,1184.5C 170.575,1187.44 162.242,1192.77 155.5,1200.5C 154.28,1200.11 153.613,1199.28 153.5,1198C 158.626,1183.4 166.293,1170.4 176.5,1159C 180.629,1155.85 185.129,1153.35 190,1151.5C 194.464,1136.31 198.297,1120.98 201.5,1105.5 Z"/></g>
<g><path style="opacity:0.975" fill="#0060ae" d="M 1345.5,1105.5 C 1370.22,1105.04 1394.89,1105.54 1419.5,1107C 1431.33,1110.83 1439.17,1118.67 1443,1130.5C 1445.91,1155.1 1440.24,1177.43 1426,1197.5C 1422.17,1202.67 1417.67,1207.17 1412.5,1211C 1416.99,1226.29 1421.32,1241.62 1425.5,1257C 1413.5,1257.67 1401.5,1257.67 1389.5,1257C 1385,1242.99 1381,1228.82 1377.5,1214.5C 1370.14,1214.17 1362.8,1214.5 1355.5,1215.5C 1351.91,1229.38 1348.24,1243.21 1344.5,1257C 1332.17,1257.67 1319.83,1257.67 1307.5,1257C 1320.25,1206.51 1332.91,1156.01 1345.5,1105.5 Z M 1375.5,1133.5 C 1384.25,1133.09 1392.92,1133.59 1401.5,1135C 1407.57,1141.88 1409.07,1149.71 1406,1158.5C 1399.93,1180.3 1385.76,1188.3 1363.5,1182.5C 1367.34,1166.13 1371.34,1149.79 1375.5,1133.5 Z"/></g>
</svg>
